<?xml version="1.0" encoding="UTF-8"?><svg id="Camada_3" xmlns="http://www.w3.org/2000/svg" viewBox="0 0 226.35 101.05"><defs><style>.cls-1{fill:#ccff02;}</style></defs><g id="Camada_1"><rect class="cls-1" x="125.29" width="101.05" height="101.05" rx="33.75" ry="33.75"/><path d="M28.95,30.02l-6.49,18.16-.03.08c-.19.68-.41,1.48-.65,2.41-.24.95-.45,1.82-.62,2.6-.17.78-.28,1.32-.33,1.61-.2.63-.49.95-.88.95s-.68-.32-.88-.95c-.1-.29-.23-.83-.4-1.61-.17-.78-.37-1.65-.59-2.6-.22-.95-.45-1.74-.69-2.38l-6.58-18.27c-.18-.49-.65-.82-1.17-.82H1.24c-.86,0-1.46.86-1.17,1.67l10.44,28.55c.83,2.34,2.05,4.1,3.66,5.27,1.61,1.17,3.51,1.76,5.71,1.76s4.1-.59,5.71-1.76c1.61-1.17,2.83-2.93,3.66-5.27l10.51-28.55c.3-.81-.3-1.67-1.17-1.67h-8.46c-.53,0-.99.33-1.17.82Z"/><path d="M67.95,30.62c-2.98-1.68-6.34-2.52-10.1-2.52s-7.04.87-9.99,2.6c-2.95,1.73-5.29,4.05-7.02,6.95-1.73,2.9-2.6,6.09-2.6,9.55s.77,6.72,2.3,9.62c1.54,2.9,3.65,5.22,6.33,6.95,2.68,1.73,5.78,2.6,9.29,2.6,3.02,0,5.61-.65,7.76-1.94.59-.35,1.14-.75,1.66-1.18.83-.69,2.08-.15,2.08.92,0,.69.56,1.24,1.24,1.24h7.39c.69,0,1.24-.56,1.24-1.24v-16.97c0-3.66-.85-6.91-2.56-9.77-1.71-2.85-4.05-5.12-7.02-6.8ZM65.94,51.95c-.8,1.42-1.9,2.55-3.29,3.4-1.39.85-2.99,1.28-4.79,1.28s-3.33-.43-4.72-1.28c-1.39-.85-2.49-1.99-3.29-3.4-.8-1.41-1.21-2.97-1.21-4.68s.4-3.27,1.21-4.68c.8-1.41,1.9-2.55,3.29-3.4,1.39-.85,2.96-1.28,4.72-1.28s3.4.43,4.79,1.28c1.39.85,2.49,1.99,3.29,3.4.8,1.42,1.21,2.98,1.21,4.68s-.4,3.27-1.21,4.68Z"/><path d="M109.73,30.65c-2.98-1.66-6.34-2.49-10.1-2.49s-7.04.85-9.99,2.56c-2.95,1.71-5.29,4-7.02,6.88-1.73,2.88-2.6,6.07-2.6,9.59s.82,6.76,2.45,9.58c1.63,2.83,3.84,5.05,6.62,6.66,2.78,1.61,5.85,2.41,9.22,2.41,2.88,0,5.26-.51,7.13-1.54.64-.35,1.4-.82,2.04-1.23s1.42.11,1.35.85c-.17,1.6-.58,3.03-1.22,4.3-.88,1.73-2.09,3.05-3.62,3.95-1.54.9-3.33,1.35-5.38,1.35-2.44,0-4.44-.55-6-1.65-1.24-.87-2.23-1.88-2.97-3.04-.34-.53-1.05-.67-1.6-.37l-6.49,3.52c-.6.33-.84,1.09-.51,1.69,1.62,2.84,3.83,5.06,6.63,6.66,3.15,1.8,6.84,2.71,11.08,2.71,3.95,0,7.47-.88,10.57-2.63,3.1-1.76,5.54-4.22,7.32-7.39,1.78-3.17,2.67-6.9,2.67-11.19v-14.63c0-3.66-.85-6.91-2.56-9.77-1.71-2.85-4.05-5.11-7.02-6.77ZM107.53,51.62c-.83,1.39-1.94,2.48-3.33,3.26-1.39.78-2.96,1.17-4.72,1.17s-3.27-.39-4.68-1.17c-1.41-.78-2.52-1.87-3.33-3.26-.8-1.39-1.21-2.94-1.21-4.65s.4-3.3,1.21-4.65c.8-1.34,1.91-2.4,3.33-3.18,1.41-.78,2.97-1.17,4.68-1.17s3.33.39,4.72,1.17c1.39.78,2.5,1.84,3.33,3.18.83,1.34,1.24,2.89,1.24,4.65s-.42,3.26-1.24,4.65Z"/><path d="M214.33,37.68c-1.73-2.9-4.07-5.22-7.02-6.95-2.95-1.73-6.31-2.6-10.06-2.6s-6.98.87-9.95,2.6c-2.98,1.73-5.33,4.04-7.06,6.91-.84,1.4-1.47,2.87-1.9,4.42-.15.55-.63.94-1.2.94h-2.66c-.45,0-.83-.25-1.05-.61-.42-1.77-1.08-3.43-1.99-4.96-1.71-2.85-4.05-5.11-7.02-6.77-2.98-1.66-6.34-2.49-10.1-2.49s-7.04.85-9.99,2.56c-2.95,1.71-5.29,4-7.02,6.88-1.73,2.88-2.6,6.07-2.6,9.59s.82,6.76,2.45,9.58c1.63,2.83,3.84,5.05,6.62,6.66,2.78,1.61,5.85,2.41,9.22,2.41,2.88,0,5.26-.51,7.13-1.54.64-.35,1.4-.82,2.04-1.23.62-.4,1.42.11,1.35.85-.17,1.6-.58,3.03-1.22,4.3-.88,1.73-2.09,3.05-3.62,3.95-1.54.9-3.33,1.35-5.38,1.35-2.44,0-4.44-.55-6-1.65-1.24-.87-2.23-1.88-2.97-3.04-.34-.53-1.05-.67-1.6-.37l-6.49,3.52c-.6.33-.84,1.09-.51,1.69,1.62,2.84,3.83,5.06,6.63,6.66,3.15,1.8,6.84,2.71,11.08,2.71,3.95,0,7.47-.88,10.57-2.63,3.1-1.76,5.54-4.22,7.32-7.39,1.78-3.17,2.67-6.9,2.67-11.19v-7.53c.15-.52.61-.9,1.17-.9h2.61c.52,0,.96.32,1.15.8.36.91.79,1.79,1.31,2.65,1.73,2.9,4.07,5.22,7.02,6.95,2.95,1.73,6.28,2.6,9.99,2.6s7.05-.87,10.02-2.6c2.97-1.73,5.33-4.05,7.06-6.95,1.73-2.9,2.6-6.11,2.6-9.62s-.87-6.65-2.6-9.55ZM162.22,51.62c-.83,1.39-1.94,2.48-3.33,3.26-1.39.78-2.96,1.17-4.72,1.17s-3.27-.39-4.68-1.17c-1.41-.78-2.52-1.87-3.33-3.26-.8-1.39-1.21-2.94-1.21-4.65s.4-3.3,1.21-4.65c.8-1.34,1.91-2.4,3.33-3.18,1.41-.78,2.97-1.17,4.68-1.17s3.33.39,4.72,1.17c1.39.78,2.5,1.84,3.33,3.18.83,1.34,1.24,2.89,1.24,4.65s-.42,3.26-1.24,4.65ZM205.34,51.99c-.8,1.42-1.9,2.55-3.29,3.4-1.39.85-2.99,1.28-4.79,1.28s-3.33-.43-4.72-1.28c-1.39-.85-2.49-1.99-3.29-3.4-.81-1.41-1.21-2.97-1.21-4.68s.4-3.27,1.21-4.68c.8-1.41,1.9-2.55,3.29-3.4,1.39-.85,2.96-1.28,4.72-1.28s3.4.43,4.79,1.28c1.39.85,2.49,1.99,3.29,3.4.8,1.42,1.21,2.98,1.21,4.68s-.4,3.27-1.21,4.68Z"/></g></svg>